<?xml version="1.0" encoding="utf-8"?>
<!-- Generator: Adobe Illustrator 12.0.0, SVG Export Plug-In . SVG Version: 6.00 Build 51448)  -->
<!DOCTYPE svg PUBLIC "-//W3C//DTD SVG 1.1//EN" "http://www.w3.org/Graphics/SVG/1.1/DTD/svg11.dtd" [
	<!ENTITY ns_svg "http://www.w3.org/2000/svg">
	<!ENTITY ns_xlink "http://www.w3.org/1999/xlink">
]>
<svg  version="1.1" id="Layer_1" xmlns="&ns_svg;" xmlns:xlink="&ns_xlink;" 
	 viewBox="0 0 982.991 979.846" overflow="visible" enable-background="new 0 0 982.991 979.846" xml:space="preserve">
<g>
	<path fill-rule="evenodd" clip-rule="evenodd" d="M0,528.802c0-4.286,0-8.571,0-12.856c1.688-7.575,1.672-21.916,12.62-26.782
		c11.744-5.221,35.006-0.033,50.481,3.214c20.381,4.276,34.616,8.594,48.377,10.713c60.422,9.307,149.49,11.322,167.218-29.997
		c7.236-16.863,2.751-41.759-3.155-53.566c-5.788-11.57-24.551-26.732-37.861-35.353c-24.837-16.088-65.347-34.305-93.6-46.067
		c-11.984-4.988-32.001-15.645-48.377-21.426c-19.545-6.9-40.329-11.163-43.119-27.854c-3.409-20.387,12.018-41.796,21.034-56.779
		c20.613-34.257,39.264-59.281,67.308-87.848c11.24-11.45,30.413-32.36,45.222-31.068c19.402,1.693,35.339,41.005,42.068,54.637
		c11.2,22.694,23.132,46.528,34.706,63.208c12.931,18.637,26.573,38.208,42.067,54.637c13.858,14.695,36.207,37.415,64.152,33.211
		c19.955-3.002,36.836-24.405,42.067-40.71c6.465-20.15,3.447-44.653-1.051-67.493c-9.246-46.941-17.346-79.621-29.447-121.059
		c-5.254-17.992-18.442-43.77-12.62-61.065c5.166-15.346,31.459-20.683,51.532-23.569c45.949-6.604,74.989-6.174,128.306-1.071
		c18.924,1.811,50.306,3.686,55.739,20.355c4.34,13.315-7.686,41.129-14.724,56.78c-9.023,20.066-17.549,34.191-23.138,51.423
		c-11.919,36.749-27.839,85.765-24.188,125.344c3.032,32.868,30.487,56.516,70.463,46.066c17.503-4.575,37.403-24.286,50.48-39.639
		c30.635-35.966,53.62-68.063,78.877-103.917c11.13-15.8,22.491-46.75,43.119-48.209c19.741-1.396,37.643,20.032,49.43,31.068
		c30.431,28.493,50.121,54.73,72.565,88.919c7.487,11.405,28.474,37.493,24.188,57.851c-3.237,15.38-39.432,24.551-62.049,29.997
		c-26.229,6.316-47.875,12.28-70.463,21.426c-36.256,14.679-97.954,38.42-104.117,80.348c-3.637,24.734,16.332,47.745,30.499,55.708
		c39.987,22.48,137.353,14.285,192.458,10.713c16.747-1.086,46.78-7.134,57.843,4.286c4.953,5.114,6.629,17.026,7.362,25.711
		c4.109,48.739-10.142,101.518-25.241,140.343c-5.404,13.897-14.65,35.833-30.498,37.495c-16.41,1.723-32.419-12.78-46.274-20.354
		c-15.678-8.571-31.767-16.144-44.171-22.498c-30.285-15.511-65.337-32.226-93.6-40.71c-13.813-4.145-32.348-8.731-49.43-6.428
		c-9.897,1.335-23.599,8.856-30.499,13.928c-34.229,25.158-11.02,70.229,8.414,96.418c31.807,42.866,54.002,62.988,95.703,94.275
		c11.864,8.901,46.004,31.523,45.223,50.352c-0.318,7.673-10.045,18.463-15.775,23.569c-21.79,19.414-50.259,32.113-73.618,46.066
		c-17.12,10.228-32.298,18.876-52.583,26.782c-17.891,6.974-46.077,18.977-64.154,11.785c-15.613-6.212-17.876-38.367-22.085-59.994
		c-4.747-24.396-7.893-44.646-13.672-68.563c-10.197-42.202-25.527-98.654-47.327-117.845c-8.855-7.796-28.85-18.75-50.479-14.998
		c-25.103,4.353-35.091,27.764-42.067,47.138c-16.266,45.171-20.277,92.93-19.982,148.912c0.115,21.794,2.944,67.164-12.621,73.921
		c-15.631,6.785-46.978-4.049-63.101-9.642c-38.334-13.298-68.695-28.351-100.961-49.281c-13.476-8.74-35.979-21.684-35.757-40.709
		c0.225-19.356,24.531-38.082,35.757-51.424c29.655-35.239,51.373-62.925,76.773-99.632c10.696-15.459,25.555-41.934,26.292-62.136
		c0.893-24.473-11.834-48.176-30.499-55.709c-21.654-8.738-45.938-0.528-67.308,8.571c-45.572,19.404-78.37,42.917-113.582,72.849
		c-14.917,12.681-39.122,37.954-57.843,36.425c-13.272-1.084-23.418-21.943-29.447-36.425C17.061,640.608,7.445,588.167,0,528.802z
		 M476.413,11.357c-34.863,0.477-71.316,3.747-96.755,17.141c2.872,41.489,19.804,75.379,30.499,114.631
		c4.927,18.084,8.063,39.905,11.568,61.064c3.631,21.92,7.515,46.393,5.258,68.564c-3.201,31.459-39.685,65.311-75.721,57.851
		c-40.949-8.478-73.312-57.042-96.755-93.204c-25.598-39.485-45.807-83.296-68.36-112.488
		c-42.507,29.6-73.398,63.721-102.013,110.345c-6.385,10.403-25.119,35.869-22.085,49.28c2.491,11.011,39.702,23.838,52.584,28.925
		c21.56,8.516,41.377,14.272,58.894,22.498c34.291,16.101,79.355,40.834,102.014,62.136c5.777,5.431,12.093,12.863,14.724,19.284
		c14.328,34.974,1.211,70.586-21.034,84.634c-31.304,19.769-83.276,18.003-125.151,13.927
		c-46.507-4.527-84.806-12.545-128.305-16.069c-6.464,92.45,17.352,162.899,53.636,215.334
		c43.557-30.492,98.594-72.633,150.391-100.703c24.503-13.28,59.96-29.994,91.497-17.142c19.939,8.127,39.547,34.993,39.964,63.208
		c0.357,24.208-16.603,46.454-27.344,64.278c-12.482,20.716-23.788,38.947-35.757,55.708
		c-26.544,37.168-60.668,61.346-79.928,102.847c20.922,23.897,50.58,38.781,79.928,53.565
		c30.315,15.271,65.602,24.057,105.168,28.926c11.923-82.46-0.339-196.697,43.119-250.688c19.299-23.978,60.072-28.186,89.393-8.57
		c28.128,18.816,41.826,82.127,52.584,116.772c14.263,45.931,13.628,99.307,32.603,137.128c35.188-4.716,66.332-16.364,93.6-29.996
		c36.477-18.237,67.86-43.826,94.652-71.778c-26.136-27.2-57.161-53.095-87.29-81.42c-28.136-26.45-59.539-55.399-74.67-95.347
		c-18.854-49.774,23.455-95.192,67.308-89.99c39.412,4.675,83.224,23.699,118.841,40.71c16.964,8.102,32.507,17.71,51.532,27.854
		c14.998,7.996,45.047,26.051,55.739,22.497c9.075-3.018,14.989-25.534,18.931-37.496c13.376-40.588,28.405-100.106,19.981-143.556
		c-45.043-8.092-88.564,4.062-137.771,3.214c-18.124-0.312-38.141-1.154-58.894-3.214c-22.288-2.213-45.617-4.172-60.998-13.927
		c-14.429-9.151-28.654-35.136-30.499-53.565c-2.83-28.292,14.184-47.083,28.396-58.922
		c51.475-42.878,147.117-60.848,209.285-87.848c-18.871-54.585-51.791-94.539-87.29-130.7
		c-12.524-12.758-25.261-28.432-43.119-34.282c-17.604,10.422-29.541,30.618-42.067,49.28
		c-25.587,38.122-49.026,73.204-80.979,106.06c-14.172,14.572-32.675,35.802-52.584,40.71c-19.395,4.781-41.929-1.261-54.688-8.571
		c-21.952-12.576-30.691-39.045-28.396-73.92c5.058-76.857,46.68-143.628,62.049-207.835
		C559.221,15.989,516.517,10.808,476.413,11.357z"/>
	<path fill-rule="evenodd" clip-rule="evenodd" d="M471.155,31.712c5.959,0,11.919,0,17.878,0
		c-4.08,13.804-2.68,29.471-2.103,46.067c13.141,3.023,28.497-0.963,39.963-3.214c0.121,7.376-0.563,15.573,1.052,21.427
		c-10.156-2.867-22.229-3.781-35.757-3.214c-10.529,11.074-3.24,37.056-1.052,51.423c-5.959,0-11.918,0-17.878,0
		c4.811-13.496,3.001-33.828,2.103-50.352c-14.128-1.455-28.401,2.384-36.809,3.214c0-5.713,0-11.428,0-17.141
		c9.646-1.601,21.477-0.976,32.602-1.071C479.91,68.07,473.557,44.385,471.155,31.712z"/>
	<path fill-rule="evenodd" clip-rule="evenodd" d="M528.998,153.842c-10.944,13.492-26.755,22.027-35.758,37.496
		c5.492,7.14,18.341,0.338,28.396,2.143c-4.432,16.085,12.718,71.993-4.207,72.849c-15.793,0.798-9.665-46.964-6.31-56.779
		c-4.541-1.427-13.581,0.917-21.035,0c0.412,16.011-1.97,44.144,4.207,57.851c-6.31,0-12.62,0-18.93,0
		c5.285-14.361,3.228-40.351,2.104-57.851c-34.57-4.564,4.733,57.544-17.878,58.922c-18.24,1.111-9.122-43.566-9.465-56.779
		c-0.098-3.766-1.552-9.15-2.104-12.856c5.822-5.139,17.474-4.341,28.396-4.285c-6.636-12.527-18.792-28.708-35.757-34.282
		c16.616-34.94,25.987,19.567,42.067,20.355C504.167,181.675,503.452,133.825,528.998,153.842z"/>
	<path fill-rule="evenodd" clip-rule="evenodd" d="M815.055,178.482c5.949,4.654,13.102,8.081,13.673,18.212
		c-5.488,5.748-10.333,3.655-14.724,7.499c-25.901,22.679,24.985,79.444,42.067,41.781c35.139,23.699-41.551,29.987-49.43,8.571
		c-11.631,7.441-3.222,23.601-7.361,34.282c-3.334,8.601-16.207,17.33-28.396,16.07c-20.27-2.095-37.479-47.924-16.827-63.208
		c11.706-8.663,28.993-0.63,41.016,6.428C796.598,219.673,803.884,197.099,815.055,178.482z M749.851,263.116
		c0.032,15.883,5.401,30.941,16.827,31.068c14.172,0.157,28.063-25.24,19.982-40.709
		C773.508,247.923,757.06,255.667,749.851,263.116z"/>
	<path fill-rule="evenodd" clip-rule="evenodd" d="M166.166,179.553c5.959,0,11.919,0,17.879,0
		c-12.673,53.042,11.613,96.556,46.274,114.63c-2.339,3.33-7.288,4.003-6.31,10.713c-15.532-35.289-79.544-46.104-115.685-26.783
		c0-5.713,0-11.427,0-17.141c25.453,1.645,42.32-5.456,66.256-5.356C173.727,228.274,169.849,204.013,166.166,179.553z"/>
	<path fill-rule="evenodd" clip-rule="evenodd" d="M246.094,264.187c7.789-0.434,7.587,7.27,13.672,8.571
		c-10.914,17.094-11.969,44.23-16.827,67.493c21.759-6.048,38.131-26.864,59.946-36.425c5.019,4.172,10.896,7.47,9.465,18.212
		c-21.396-3.521-32.757,10.071-47.326,21.426c-9.711,7.569-22.327,18.454-30.499,18.212c-4.723-0.141-13.474-5.448-13.672-12.856
		c-0.091-3.398,5.63-11.517,8.413-18.212c2.607-6.272,5.506-13.52,7.362-19.284C242.213,293.981,243.973,276.859,246.094,264.187z"
		/>
	<path fill-rule="evenodd" clip-rule="evenodd" d="M757.213,326.323c-13.004,12.134-36.122,6.597-54.688,8.57
		c-5.905,8.504-10.216,19.152-14.724,29.997c-4.271,10.273-5.798,23.785-15.775,28.925c-17.157-19.305-32.269-40.693-46.274-63.208
		c4.433-5.964,12.867-3.919,18.931-4.285c15.921-0.961,31.979-2.383,47.325-3.214c8.741-16.093,13.686-36.054,24.189-50.352
		C733.225,287.194,744.17,307.826,757.213,326.323z M706.732,323.109c11.754-2.446,22.952,0.063,32.603-3.214
		c-7.788-8.494-13.783-18.814-21.034-27.854C715.475,303.447,709.253,311.394,706.732,323.109z M644.683,339.179
		c10.118,10.405,16.253,24.869,27.344,34.282c3.269-13.102,12.43-25.9,13.672-37.496
		C675.559,337.175,655.962,337.153,644.683,339.179z"/>
	<path fill-rule="evenodd" clip-rule="evenodd" d="M277.645,590.938c-24.714-2.639-51.648-17.878-77.825-8.57
		c-5.606,13.362,6.47,23.004,10.517,33.211c-4.412,2.52-12.205,6.536-17.878,4.285c3.826-15.02-3.453-25.932-7.362-36.425
		c-15.551-1.557-23.076,5.063-32.603,9.642c-1.237-6.239-1.202-13.774-2.103-20.354c10.907,2.151,24.389,3.255,32.602-2.143
		c-2.102-13.93-10.583-21.359-13.672-34.282c9.399,1.718,9.996-5.53,17.878-5.356c-1.71,13.883,3.507,20.709,3.155,33.21
		c29.613-3.418,40.238-35.42,63.101-49.28C268.163,533.46,274.892,560.173,277.645,590.938z M216.647,566.297
		c14.431,3.517,30.354,11.214,48.378,7.5c-5.67-14.223-9.183-30.642-15.775-43.924C241.438,545.126,224.15,550.729,216.647,566.297z
		"/>
	<path fill-rule="evenodd" clip-rule="evenodd" d="M845.554,525.588c-0.075,17.659-10.914,29.262-9.465,44.995
		c-21.262-2.269-38.793-8.336-54.688-16.07c-4.686,5.362-3.899,11.209-7.362,16.07c-16.279,22.857-60.773,11.64-62.049-13.928
		c-0.75-15.037,12.086-24.45,28.396-24.64c31.417-0.365,58.529,17.451,86.238,24.64c6.119-5.906,0.941-23.324,4.206-32.14
		C832.366,517.564,843.923,522.559,845.554,525.588z M725.663,548.085c-12.374,34.999,37.697,25.542,38.912,2.143
		C758.738,540.885,734.595,542.724,725.663,548.085z"/>
	<path fill-rule="evenodd" clip-rule="evenodd" d="M894.984,521.302c8.11,11.38,19.259,19.664,22.085,36.425
		c-19.411,0.226-25.554,13.965-42.067,17.142c10.92,8.807,29.93,18.607,48.378,12.855c-0.607,7.596-2.548,13.831-3.155,21.426
		c-14.271-7.602-29.378-14.355-47.326-18.212c2.23,16.302,14.267,31.891,31.551,36.425c-1.302,6.313-9.896,14.1-17.879,17.141
		c-6.824-16.472-23.14-35.896-28.396-53.565c-7.318-24.607,24.177-32.138,41.016-41.781c0.171-10.887-12.563-8.629-15.773-16.069
		C884.05,525.877,894.008,528.164,894.984,521.302z"/>
	<path fill-rule="evenodd" clip-rule="evenodd" d="M135.667,578.082c6.907,3.677,5.94,15.375,10.517,21.426
		c-41.296-8.546-52.221,30.598-56.791,66.422c-6.631,0.327-12.454-0.17-17.878-1.071c8.825-19.223,17.447-38.65,26.292-57.852
		c-15.136,1.013-34.345,7.15-44.171,17.142c-1.262-6.215-4.982-9.923-7.362-14.999c13.87-6.94,32.159-9.378,49.429-12.855
		c-14.893-15.896-30.082-31.493-56.791-35.354c0.261-8.662,5.854-11.892,8.414-18.212c22.665,8.215,38.985,50.794,72.566,43.924
		C126.5,585.301,127.353,579.141,135.667,578.082z"/>
	<path fill-rule="evenodd" clip-rule="evenodd" d="M929.689,640.218c-7.884-1.968-13.461-6.285-12.62-17.141
		c27.821,4.153,28.566-36.296,10.518-43.924c-0.416-7.209,7.654-5.772,9.465-10.714
		C961.649,585.349,950.968,627.497,929.689,640.218z"/>
	<path fill-rule="evenodd" clip-rule="evenodd" d="M412.26,746.278c-11.448,18.335-47.468,11.638-60.998,27.854
		c9.647,6.957,16.63,16.628,32.602,17.142c-2.8,5.003-3.643,12.001-8.413,14.999c-9.642-3.203-16.745-19.133-29.447-16.07
		c-8.305,2.002-9.127,12.146-9.465,24.64c-12.087,0.887-18.676-3.83-18.93-14.998c22.244,0.295,22.416-40.486-4.207-35.354
		c2.985-6.958,3.783-16.146,13.672-16.069c-0.534,11.614,8.825,13.15,14.724,18.212c14.667-15.254-7.653-43.384,3.155-61.064
		C376.45,709.907,389.963,732.566,412.26,746.278z M358.625,754.849c9.16-3.525,18.767-6.595,30.499-7.499
		c-4.659-13.471-19.209-22.566-33.653-22.498C361.698,731.896,352.642,747.88,358.625,754.849z"/>
	<path fill-rule="evenodd" clip-rule="evenodd" d="M655.2,721.638c-17.355,25.531,5.552,92.076-27.344,101.774
		c-0.803-28.739-47.735-32.915-60.998-49.28c-4.717-5.82-3.082-13.034,2.104-19.283c13.835,18.403,36.302,28.014,54.688,41.781
		c-5.523-21.515-17.901-36.045-24.188-56.78c6.273,0.32,8.102-3.89,13.672-4.285c2.853,20.663,10.401,36.541,21.033,49.28
		c5.354-22.759,1.512-54.882,14.724-69.635C652.086,716.238,653.281,719.307,655.2,721.638z"/>
	<path fill-rule="evenodd" clip-rule="evenodd" d="M321.815,827.697c-14.944,2.384-33.3,38.295-3.155,37.496
		c-0.123,10.945-3.505,18.57-13.672,19.284c1.335-11.001-5.156-14.032-10.517-18.213c-20.559,15.55-4.125,53.115,26.292,46.067
		c1.605,10.562-4.492,13.28-8.413,18.212c-58.745-11.583-28.066-86.522-6.311-115.702
		C315.979,814.358,320.819,819.07,321.815,827.697z"/>
	<path fill-rule="evenodd" clip-rule="evenodd" d="M673.079,930.544c-3.443-5.32-7.99-10.636-6.311-18.212
		c27.879,5.467,40.724-23.67,33.654-50.353c-11.126,5.094-25.932,6.438-23.138,25.712c-11.906-0.369-13.828-10.911-14.724-22.498
		c11.864-1.494,25.552-1.216,26.293-11.784c1.17-16.693-42.471-27.83-43.119-2.143c-8.319-2.237-10.773-10.453-10.518-21.427
		c10.671-4.449,19.166-8.972,33.654-7.499C717.697,827.306,725.812,921.143,673.079,930.544z"/>
</g>
</svg>
